<mxfile host="app.diagrams.net" modified="2021-03-26T16:19:31.945Z" agent="5.0 (Windows NT 10.0; Win64; x64) AppleWebKit/537.36 (KHTML, like Gecko) Chrome/89.0.4389.90 Safari/537.36" etag="bpWwASNpUSQVXX0vL7Zn" version="14.5.1" type="github">
  <diagram id="C5RBs43oDa-KdzZeNtuy" name="Page-1">
    <mxGraphModel dx="782" dy="776" grid="1" gridSize="10" guides="1" tooltips="1" connect="1" arrows="1" fold="1" page="1" pageScale="1" pageWidth="827" pageHeight="1169" math="0" shadow="0">
      <root>
        <mxCell id="WIyWlLk6GJQsqaUBKTNV-0" />
        <mxCell id="WIyWlLk6GJQsqaUBKTNV-1" parent="WIyWlLk6GJQsqaUBKTNV-0" />
        <mxCell id="nWYYjyuj7julqWqPPin5-0" value="&lt;h1 class=&quot;box1&quot; style=&quot;font-family: &amp;#34;times new roman&amp;#34;&quot;&gt;guess&amp;nbsp; number&lt;/h1&gt;" style="text;html=1;resizable=0;autosize=1;align=center;verticalAlign=middle;points=[];fillColor=none;strokeColor=none;rounded=0;" vertex="1" parent="WIyWlLk6GJQsqaUBKTNV-1">
          <mxGeometry x="100" y="50" width="160" height="50" as="geometry" />
        </mxCell>
        <mxCell id="nWYYjyuj7julqWqPPin5-1" value="" style="endArrow=classic;html=1;" edge="1" parent="WIyWlLk6GJQsqaUBKTNV-1">
          <mxGeometry width="50" height="50" relative="1" as="geometry">
            <mxPoint x="150" y="230" as="sourcePoint" />
            <mxPoint x="180" y="140" as="targetPoint" />
            <Array as="points">
              <mxPoint x="170" y="200" />
            </Array>
          </mxGeometry>
        </mxCell>
        <mxCell id="nWYYjyuj7julqWqPPin5-2" value="" style="endArrow=classic;html=1;" edge="1" parent="WIyWlLk6GJQsqaUBKTNV-1" target="nWYYjyuj7julqWqPPin5-3">
          <mxGeometry width="50" height="50" relative="1" as="geometry">
            <mxPoint x="160" y="240" as="sourcePoint" />
            <mxPoint x="240" y="360" as="targetPoint" />
          </mxGeometry>
        </mxCell>
        <mxCell id="nWYYjyuj7julqWqPPin5-3" value="" style="rounded=0;whiteSpace=wrap;html=1;" vertex="1" parent="WIyWlLk6GJQsqaUBKTNV-1">
          <mxGeometry x="170" y="310" width="120" height="60" as="geometry" />
        </mxCell>
        <mxCell id="nWYYjyuj7julqWqPPin5-4" value="number of user&amp;nbsp;" style="text;html=1;resizable=0;autosize=1;align=center;verticalAlign=middle;points=[];fillColor=none;strokeColor=none;rounded=0;" vertex="1" parent="WIyWlLk6GJQsqaUBKTNV-1">
          <mxGeometry x="180" y="340" width="100" height="20" as="geometry" />
        </mxCell>
        <mxCell id="nWYYjyuj7julqWqPPin5-5" value="" style="endArrow=classic;html=1;" edge="1" parent="WIyWlLk6GJQsqaUBKTNV-1">
          <mxGeometry width="50" height="50" relative="1" as="geometry">
            <mxPoint x="310" y="370" as="sourcePoint" />
            <mxPoint x="400" y="350" as="targetPoint" />
          </mxGeometry>
        </mxCell>
        <mxCell id="nWYYjyuj7julqWqPPin5-6" value="" style="rounded=0;whiteSpace=wrap;html=1;" vertex="1" parent="WIyWlLk6GJQsqaUBKTNV-1">
          <mxGeometry x="414" y="300" width="120" height="60" as="geometry" />
        </mxCell>
        <mxCell id="nWYYjyuj7julqWqPPin5-7" value="number from bot" style="text;html=1;resizable=0;autosize=1;align=center;verticalAlign=middle;points=[];fillColor=none;strokeColor=none;rounded=0;" vertex="1" parent="WIyWlLk6GJQsqaUBKTNV-1">
          <mxGeometry x="424" y="320" width="100" height="20" as="geometry" />
        </mxCell>
        <mxCell id="nWYYjyuj7julqWqPPin5-8" value="bot guess a number" style="text;html=1;resizable=0;autosize=1;align=center;verticalAlign=middle;points=[];fillColor=none;strokeColor=none;rounded=0;" vertex="1" parent="WIyWlLk6GJQsqaUBKTNV-1">
          <mxGeometry x="444" y="65" width="120" height="20" as="geometry" />
        </mxCell>
        <mxCell id="nWYYjyuj7julqWqPPin5-9" value="" style="endArrow=classic;html=1;" edge="1" parent="WIyWlLk6GJQsqaUBKTNV-1">
          <mxGeometry width="50" height="50" relative="1" as="geometry">
            <mxPoint x="520" y="100" as="sourcePoint" />
            <mxPoint x="480" y="280" as="targetPoint" />
          </mxGeometry>
        </mxCell>
        <mxCell id="nWYYjyuj7julqWqPPin5-10" value="" style="endArrow=classic;html=1;" edge="1" parent="WIyWlLk6GJQsqaUBKTNV-1" target="nWYYjyuj7julqWqPPin5-11">
          <mxGeometry width="50" height="50" relative="1" as="geometry">
            <mxPoint x="340" y="370" as="sourcePoint" />
            <mxPoint x="200" y="460" as="targetPoint" />
          </mxGeometry>
        </mxCell>
        <mxCell id="nWYYjyuj7julqWqPPin5-11" value="" style="rounded=0;whiteSpace=wrap;html=1;" vertex="1" parent="WIyWlLk6GJQsqaUBKTNV-1">
          <mxGeometry x="140" y="420" width="120" height="60" as="geometry" />
        </mxCell>
        <mxCell id="nWYYjyuj7julqWqPPin5-12" value="not the same" style="text;html=1;resizable=0;autosize=1;align=center;verticalAlign=middle;points=[];fillColor=none;strokeColor=none;rounded=0;" vertex="1" parent="WIyWlLk6GJQsqaUBKTNV-1">
          <mxGeometry x="160" y="440" width="80" height="20" as="geometry" />
        </mxCell>
        <mxCell id="nWYYjyuj7julqWqPPin5-14" value="" style="endArrow=classic;html=1;" edge="1" parent="WIyWlLk6GJQsqaUBKTNV-1" target="nWYYjyuj7julqWqPPin5-15">
          <mxGeometry width="50" height="50" relative="1" as="geometry">
            <mxPoint x="180" y="520" as="sourcePoint" />
            <mxPoint x="210" y="480" as="targetPoint" />
          </mxGeometry>
        </mxCell>
        <mxCell id="nWYYjyuj7julqWqPPin5-15" value="show text down saying &quot;&lt;span style=&quot;font-family: &amp;#34;times new roman&amp;#34; ; font-size: medium&quot;&gt;The numbers did not match! Try a different number.&lt;/span&gt;&lt;button id=&quot;button2&quot;&gt;&lt;br&gt;&quot;&lt;br&gt;&lt;/button&gt;" style="rounded=0;whiteSpace=wrap;html=1;" vertex="1" parent="WIyWlLk6GJQsqaUBKTNV-1">
          <mxGeometry x="70" y="550" width="120" height="60" as="geometry" />
        </mxCell>
        <mxCell id="nWYYjyuj7julqWqPPin5-18" value="the same" style="rounded=0;whiteSpace=wrap;html=1;" vertex="1" parent="WIyWlLk6GJQsqaUBKTNV-1">
          <mxGeometry x="470" y="410" width="120" height="60" as="geometry" />
        </mxCell>
        <mxCell id="nWYYjyuj7julqWqPPin5-19" value="" style="endArrow=classic;html=1;entryX=0.067;entryY=-0.067;entryDx=0;entryDy=0;entryPerimeter=0;" edge="1" parent="WIyWlLk6GJQsqaUBKTNV-1" target="nWYYjyuj7julqWqPPin5-18">
          <mxGeometry width="50" height="50" relative="1" as="geometry">
            <mxPoint x="460" y="370" as="sourcePoint" />
            <mxPoint x="460" y="420" as="targetPoint" />
          </mxGeometry>
        </mxCell>
        <mxCell id="nWYYjyuj7julqWqPPin5-20" value="" style="endArrow=classic;html=1;exitX=0.392;exitY=1.017;exitDx=0;exitDy=0;exitPerimeter=0;" edge="1" parent="WIyWlLk6GJQsqaUBKTNV-1" source="nWYYjyuj7julqWqPPin5-18">
          <mxGeometry width="50" height="50" relative="1" as="geometry">
            <mxPoint x="514" y="540" as="sourcePoint" />
            <mxPoint x="550" y="500" as="targetPoint" />
          </mxGeometry>
        </mxCell>
        <mxCell id="nWYYjyuj7julqWqPPin5-21" value="show message saying &quot;&lt;span style=&quot;font-family: &amp;#34;times new roman&amp;#34; ; font-size: medium&quot;&gt;Numbers matched! You win!&lt;/span&gt;&lt;button id=&quot;button2&quot;&gt;&lt;br&gt;&quot;&lt;br&gt;&lt;/button&gt;" style="rounded=0;whiteSpace=wrap;html=1;" vertex="1" parent="WIyWlLk6GJQsqaUBKTNV-1">
          <mxGeometry x="524" y="510" width="120" height="60" as="geometry" />
        </mxCell>
      </root>
    </mxGraphModel>
  </diagram>
</mxfile>
